# xmcd
#
# Track frame offsets:
#       150
#       11545
#       19830
#       29825
#       40182
#       51530
#       61450
#       71175
#       84620
#       94447
#       103922
#       113265
#       125352
#       135490
#       145990
#       156340
#       165875
#       173532
#       184352
#       195675
#       208970
#       217822
#       231217
#       244540
#       257272
#       267110
#       278365
#       291572
#       302885
#       313517
#       322080
#       331945
#       342792
#
# Disc length: 4697 seconds
#
# Revision: 0
# Processed by: cddbd v1.4PL0 Copyright (c) Steve Scherf et al.
# Submitted via: WhereIsIt 3.26
#
DISCID=e8125721
DTITLE=Rex and Noelene Franklin - upon the outlaw trail
DYEAR=1900
DGENRE=
TTITLE0=red river valley blues
TTITLE1=where the golden wattle blooms
TTITLE2=wabash cannonball
TTITLE3=the waltz of the wind
TTITLE4=keep the lovelight shining
TTITLE5=I'll take mine country style
TTITLE6=three score years and ten
TTITLE7=click go the shears
TTITLE8=drover's dream
TTITLE9=red wing
TTITLE10=a mansion on the hill
TTITLE11=rose of the rio
TTITLE12=someone more lonesome than you
TTITLE13=my star in the sky
TTITLE14=too late to worry
TTITLE15=shackles and chains
TTITLE16=I'd like to sit with the baby sitter
TTITLE17=roundup time in sunny old alberta
TTITLE18=fraulein
TTITLE19=act 1 act 2 act 3
TTITLE20=his guiding hand
TTITLE21=the cowhand swing
TTITLE22=the drover's song
TTITLE23=mandrake
TTITLE24=when the white azaleas start blooming
TTITLE25=you'll regret those words my darling
TTITLE26=a ten year sentence
TTITLE27=upon the outlaw trail
TTITLE28=croonin' bachelor
TTITLE29=let's get married
TTITLE30=on the takapau plains
TTITLE31=take me back to the good old days
TTITLE32=all or none
EXTD=
EXTT0=
EXTT1=
EXTT2=
EXTT3=
EXTT4=
EXTT5=
EXTT6=
EXTT7=
EXTT8=
EXTT9=
EXTT10=
EXTT11=
EXTT12=
EXTT13=
EXTT14=
EXTT15=
EXTT16=
EXTT17=
EXTT18=
EXTT19=
EXTT20=
EXTT21=
EXTT22=
EXTT23=
EXTT24=
EXTT25=
EXTT26=
EXTT27=
EXTT28=
EXTT29=
EXTT30=
EXTT31=
EXTT32=
PLAYORDER=
